<?xml version="1.0" encoding="utf-8"?>
<!-- Generator: Adobe Illustrator 25.3.0, SVG Export Plug-In . SVG Version: 6.00 Build 0)  -->
<svg version="1.1" id="Layer_1" xmlns="http://www.w3.org/2000/svg" xmlns:xlink="http://www.w3.org/1999/xlink" x="0px" y="0px"
	 viewBox="0 0 1080 1080" style="enable-background:new 0 0 1080 1080;" xml:space="preserve">
<style type="text/css">
	.st0{fill:#F9F9F9;}
</style>
<g>
	<path class="st0" d="M20.2,591.6h28.1V418.5H20.2V415h79.4v3.5H73.6V499h2.5l76.4-80.5h-26.3V415h52.4v3.5h-21l-64.3,68.1l91.8,105
		h16.7v3.5h-73.1v-3.5h22.8l-75.9-89.1h-2v89.1h26.1v3.5H20.2V591.6z"/>
	<path class="st0" d="M221.9,584.5c0-3.7,1.3-6.9,3.9-9.5c2.6-2.6,5.8-3.9,9.5-3.9c3.7,0,6.9,1.3,9.5,3.9c2.6,2.6,3.9,5.8,3.9,9.5
		c0,3.7-1.3,6.9-3.9,9.5c-2.6,2.6-5.8,3.9-9.5,3.9c-3.7,0-6.9-1.3-9.5-3.9C223.2,591.4,221.9,588.2,221.9,584.5z"/>
	<path class="st0" d="M289.4,540.7h2.8c1.9,9.1,4.3,16.8,7.2,23c2.9,6.2,6.2,11.4,9.7,15.4c3.5,4,7.2,7.2,11.1,9.4
		c3.9,2.2,7.8,3.8,11.8,4.8c4,1,7.8,1.6,11.4,1.8c3.6,0.2,7,0.3,10.2,0.3c8.9,0,16.3-1.3,22-4c5.7-2.7,10.3-6.1,13.7-10.2
		c3.4-4.1,5.7-8.6,7.1-13.4c1.3-4.8,2-9.2,2-13.3c0-5.9-1.1-11-3.3-15.2c-2.2-4.2-5-7.8-8.3-10.8c-3.4-2.9-7-5.4-11-7.2
		c-4-1.9-7.7-3.3-11.3-4.3l-29.1-8.9c-13.7-4.2-24-9.8-31-16.7c-7-6.9-10.5-16.2-10.5-27.8c0-7.6,1.3-14.6,4-21.1
		c2.7-6.5,6.5-12.1,11.4-16.8c4.9-4.7,10.8-8.4,17.6-11.1c6.8-2.7,14.3-4,22.4-4c5.9,0,10.8,0.5,14.8,1.5c4,1,7.4,2.2,10.2,3.4
		c2.9,1.3,5.4,2.4,7.7,3.4c2.3,1,4.6,1.5,7,1.5c2.2,0,3.7-0.3,4.4-0.9c0.8-0.6,1.8-2.1,3.2-4.4h3.5v45.8h-3
		c-1-6.1-2.7-11.9-5.2-17.6c-2.4-5.6-5.6-10.6-9.5-14.9c-3.9-4.3-8.6-7.8-14-10.4c-5.5-2.6-11.9-3.9-19.1-3.9c-4,0-8.5,0.5-13.4,1.6
		c-4.9,1.1-9.4,3-13.7,5.7c-4.2,2.7-7.7,6.2-10.5,10.6c-2.8,4.4-4.2,10-4.2,16.7c0,5.4,1.1,10,3.3,13.8c2.2,3.8,5,7,8.5,9.6
		c3.5,2.6,7.3,4.8,11.6,6.6c4.3,1.8,8.6,3.3,13,4.7l30.6,9.6c3.2,1,7.3,2.4,12.1,4c4.9,1.7,9.7,4.2,14.3,7.6
		c4.6,3.4,8.6,7.8,11.9,13.4c3.3,5.6,4.9,12.6,4.9,21.3c0,7.9-1.5,15.5-4.4,22.6c-3,7.2-7.2,13.5-12.8,19
		c-5.6,5.5-12.3,9.9-20.2,13.2c-7.9,3.3-16.9,4.9-26.8,4.9c-3.5,0-6.7,0-9.4-0.1c-2.7-0.1-5.2-0.3-7.6-0.6c-2.4-0.3-4.7-0.7-7.1-1.1
		c-2.4-0.4-5-1.1-7.8-1.9c-3.4-1-7-2.2-10.9-3.5c-3.9-1.3-7.3-2-10.1-2c-2.5,0-4.3,0.5-5.2,1.5c-0.9,1-1.7,2.4-2.4,4h-3.8V540.7z"/>
	<path class="st0" d="M592.8,372.4l7.3,2.2l-98.9,263.1l-7.3-2.2L592.8,372.4z"/>
	<path class="st0" d="M662.3,591.6h28.1V418.5h-28.1V415h48.1c2,0,4,0,6.1-0.1c2-0.1,4-0.2,6.1-0.4c2,0,4,0,6.1-0.1
		c2-0.1,4-0.1,6.1-0.1c9.9,0,18.7,0.5,26.3,1.6c7.6,1.1,14.7,4.3,21.3,9.5c5.9,4.6,10.1,9.7,12.5,15.4c2.4,5.7,3.7,11.1,3.7,16.2
		c0,2.5-0.5,5.8-1.4,9.7c-0.9,4-3,8-6.1,12.1c-3.1,4.1-7.6,7.9-13.5,11.4c-5.9,3.5-13.7,5.8-23.5,7v0.5c2.7,0.3,6.4,1,11,1.9
		c4.6,0.9,9.4,2.5,14.2,4.7c4.8,2.2,9.2,5.1,13.3,8.7c4,3.6,6.9,8.3,8.6,14c1,3.4,1.7,7.2,2.2,11.5c0.4,4.3,0.8,8.7,1,13.3
		c0.3,4.6,0.5,8.9,0.8,13.2c0.3,4.2,0.7,7.8,1.4,10.6c1,4.4,2.6,8.3,4.8,11.9c2.2,3.5,5.7,5.3,10.6,5.3c2.2,0,4.5-0.4,6.8-1.3
		c2.4-0.8,4.5-2.2,6.3-4l2.3,2.8c-0.8,0.7-1.8,1.4-2.9,2.2c-1.1,0.8-2.5,1.5-4.2,2.2c-1.7,0.7-3.8,1.2-6.2,1.6
		c-2.4,0.4-5.4,0.6-9,0.6c-6.7,0-12.4-0.8-16.8-2.5c-4.5-1.7-8.1-4.2-10.8-7.5c-2.7-3.3-4.7-7.3-5.9-12.1
		c-1.3-4.8-2.1-10.4-2.7-16.8l-1.8-23c-0.7-8.4-2.4-15-5.1-19.7c-2.7-4.7-5.9-8.2-9.5-10.4c-3.6-2.2-7.4-3.5-11.3-3.9
		c-3.9-0.4-7.3-0.6-10.1-0.6h-25.3v91.3h28.1v3.5h-81.5V591.6z M715.7,496.7H739c4.7,0,9-0.6,12.9-1.8c3.9-1.2,7.2-3.2,10-6.2
		c2.8-2.9,4.9-7,6.5-12s2.3-11.5,2.3-19.2c0-8.8-1.1-15.8-3.4-21.1c-2.3-5.3-5.2-9.3-8.9-12c-3.6-2.7-7.7-4.5-12.1-5.3
		c-4.5-0.8-8.9-1.3-13.3-1.3c-3,0-6.1,0-9.2,0.1c-3.1,0.1-5.8,0.3-8,0.6V496.7z"/>
	<path class="st0" d="M859.2,584.5c0-3.7,1.3-6.9,3.9-9.5c2.6-2.6,5.8-3.9,9.5-3.9c3.7,0,6.9,1.3,9.5,3.9c2.6,2.6,3.9,5.8,3.9,9.5
		c0,3.7-1.3,6.9-3.9,9.5c-2.6,2.6-5.8,3.9-9.5,3.9c-3.7,0-6.9-1.3-9.5-3.9C860.5,591.4,859.2,588.2,859.2,584.5z"/>
	<path class="st0" d="M915.3,591.6h28.1V418.5h-28.1V415h44.3c2.5,0,5.1,0,7.7-0.1c2.6-0.1,5.3-0.2,8-0.4c2.7,0,5.3,0,7.8-0.1
		c2.5-0.1,5-0.1,7.3-0.1c12.3,0,22.4,1.5,30.4,4.4c7.9,3,14.2,6.6,18.7,10.9c4.6,4.3,7.7,8.9,9.4,13.9c1.7,5,2.5,9.5,2.5,13.5
		c0,5.6-1.2,10.7-3.7,15.4c-2.4,4.7-5.7,8.9-9.9,12.4c-4.1,3.5-8.9,6.4-14.3,8.6c-5.4,2.2-11,3.6-17,4.3v0.5
		c6.1,0.5,12.3,1.8,18.6,3.9c6.3,2.1,12.1,5.1,17.2,8.9c5.1,3.8,9.3,8.5,12.5,14c3.2,5.6,4.8,12,4.8,19.2c0,7.6-1.4,14.5-4.3,20.9
		c-2.9,6.3-7.2,11.8-12.9,16.3c-5.7,4.6-13,8.1-21.8,10.8c-8.8,2.6-19,3.9-30.6,3.9c-2.4,0-4.7,0-7-0.1c-2.3-0.1-4.7-0.2-7.2-0.4
		c-2.5-0.2-5.1-0.3-7.8-0.4c-2.7-0.1-5.6-0.1-8.6-0.1h-44.3V591.6z M968.7,496.7H992c4.7,0,9-0.6,12.9-1.8c3.9-1.2,7.2-3.2,10-6.2
		c2.8-2.9,4.9-7,6.5-12c1.5-5.1,2.3-11.5,2.3-19.2c0-8.8-1.1-15.8-3.4-21.1c-2.3-5.3-5.2-9.3-8.9-12c-3.6-2.7-7.7-4.5-12.1-5.3
		c-4.5-0.8-8.9-1.3-13.3-1.3c-3,0-6.1,0-9.2,0.1c-3.1,0.1-5.8,0.3-8,0.6V496.7z M968.7,591.6c2,0.2,4.3,0.4,6.7,0.6
		c2.4,0.3,5.9,0.4,10.5,0.4c7.9,0,14.7-0.8,20.4-2.3c5.6-1.5,10.3-4.2,13.9-8c3.6-3.8,6.3-8.8,8-15.1c1.7-6.2,2.5-14.1,2.5-23.5
		c0-13.5-2.9-24.1-8.6-31.9c-5.7-7.8-14.3-11.6-25.6-11.6h-27.8V591.6z"/>
</g>
</svg>
